<?xml version="1.0" encoding="UTF-8" standalone="no"?>
<!DOCTYPE svg PUBLIC "-//W3C//DTD SVG 20010904//EN"
              "http://www.w3.org/TR/2001/REC-SVG-20010904/DTD/svg10.dtd">

<svg xmlns="http://www.w3.org/2000/svg"
     width="0.333333in" height="0.333333in"
     viewBox="0 0 100 100">
  <path id="Unnamed"
        fill="black" stroke="none" stroke-width="1"
        d="M 50.00,40.00
           C 50.00,40.00 10.00,0.00 10.00,0.00
             10.00,0.00 0.00,10.00 0.00,10.00
             0.00,10.00 40.00,50.00 40.00,50.00
             40.00,50.00 0.00,90.00 0.00,90.00
             0.00,90.00 10.00,100.00 10.00,100.00
             10.00,100.00 50.00,60.00 50.00,60.00
             50.00,60.00 90.00,100.00 90.00,100.00
             90.00,100.00 100.00,90.00 100.00,90.00
             100.00,90.00 60.00,50.00 60.00,50.00
             60.00,50.00 100.00,10.00 100.00,10.00
             100.00,10.00 90.00,0.00 90.00,0.00
             90.00,0.00 50.00,40.00 50.00,40.00" />
</svg>
